HIERARCHY
ROOT Hips
{
  OFFSET 5.80788e-005 67.184 3.4734
  CHANNELS 6 Xposition Yposition Zposition Zrotation Xrotation Yrotation
  JOINT Chest
  {
    OFFSET 0 8.7983 -4.7612
    CHANNELS 6 Xposition Yposition Zposition Zrotation Xrotation Yrotation
    JOINT Chest2
    {
      OFFSET 0 8.0291 0.4195
      CHANNELS 6 Xposition Yposition Zposition Zrotation Xrotation Yrotation
      JOINT Chest3
      {
        OFFSET 0 9.9351 -2.2114
        CHANNELS 6 Xposition Yposition Zposition Zrotation Xrotation Yrotation
        JOINT Neck
        {
          OFFSET 0 22.3885 -0.4656
          CHANNELS 6 Xposition Yposition Zposition Zrotation Xrotation Yrotation
          JOINT Head
          {
            OFFSET -0.0001 12.643 3.4389
            CHANNELS 6 Xposition Yposition Zposition Zrotation Xrotation Yrotation
            End Site
            {
              OFFSET 0.0001 17.6655 0.5274
            }
          }
        }
        JOINT LeftCollar
        {
          OFFSET 2.2603 21.606 7.4023
          CHANNELS 6 Xposition Yposition Zposition Zrotation Xrotation Yrotation
          JOINT LeftShoulder
          {
            OFFSET 13.5163 -1.1332 -5.0146
            CHANNELS 6 Xposition Yposition Zposition Zrotation Xrotation Yrotation
            JOINT LeftElbow
            {
              OFFSET -0.0995 -28.05 -0.2431
              CHANNELS 6 Xposition Yposition Zposition Zrotation Xrotation Yrotation
              JOINT LeftWrist
              {
                OFFSET 0.0679 -23.3996 -0.1402
                CHANNELS 6 Xposition Yposition Zposition Zrotation Xrotation Yrotation
                JOINT LeftFinger1
                {
                  OFFSET 0.7932 -9.069 2.5189
                  CHANNELS 6 Xposition Yposition Zposition Zrotation Xrotation Yrotation
                  JOINT LeftFinger11
                  {
                    OFFSET -0.8272 -3.3923 0.5977
                    CHANNELS 6 Xposition Yposition Zposition Zrotation Xrotation Yrotation
                    JOINT LeftFinger12
                    {
                      OFFSET -0.5649 -2.3158 0.4082
                      CHANNELS 6 Xposition Yposition Zposition Zrotation Xrotation Yrotation
                      End Site
                      {
                        OFFSET -0.4919 -1.6479 0.2673
                      }
                    }
                  }
                }
                JOINT LeftFinger2
                {
                  OFFSET 0.9159 -9.2044 0.2193
                  CHANNELS 6 Xposition Yposition Zposition Zrotation Xrotation Yrotation
                  JOINT LeftFinger21
                  {
                    OFFSET 0.0117 -4.1944 -0.0248
                    CHANNELS 6 Xposition Yposition Zposition Zrotation Xrotation Yrotation
                    JOINT LeftFinger22
                    {
                      OFFSET 0.0071 -2.3249 -0.0142
                      CHANNELS 6 Xposition Yposition Zposition Zrotation Xrotation Yrotation
                      End Site
                      {
                        OFFSET -0.1475 -2.0882 0.0028
                      }
                    }
                  }
                }
                JOINT LeftFinger3
                {
                  OFFSET 0.6113 -8.7231 -2.0637
                  CHANNELS 6 Xposition Yposition Zposition Zrotation Xrotation Yrotation
                  JOINT LeftFinger31
                  {
                    OFFSET -0.1927 -3.8059 -0.2383
                    CHANNELS 6 Xposition Yposition Zposition Zrotation Xrotation Yrotation
                    JOINT LeftFinger32
                    {
                      OFFSET -0.1091 -2.1688 -0.1362
                      CHANNELS 6 Xposition Yposition Zposition Zrotation Xrotation Yrotation
                      End Site
                      {
                        OFFSET -0.2358 -1.9176 -0.0906
                      }
                    }
                  }
                }
                JOINT LeftFinger4
                {
                  OFFSET -0.6151 -8.0947 -3.5641
                  CHANNELS 6 Xposition Yposition Zposition Zrotation Xrotation Yrotation
                  JOINT LeftFinger41
                  {
                    OFFSET -0.4882 -2.341 -0.6462
                    CHANNELS 6 Xposition Yposition Zposition Zrotation Xrotation Yrotation
                    JOINT LeftFinger42
                    {
                      OFFSET -0.3575 -1.7167 -0.4742
                      CHANNELS 6 Xposition Yposition Zposition Zrotation Xrotation Yrotation
                      End Site
                      {
                        OFFSET -0.4187 -1.5237 -0.3496
                      }
                    }
                  }
                }
                JOINT LeftFinger0
                {
                  OFFSET -1.42 -1.8761 1.4223
                  CHANNELS 6 Xposition Yposition Zposition Zrotation Xrotation Yrotation
                  JOINT LeftFinger01
                  {
                    OFFSET -1.1471 -3.4929 2.6334
                    CHANNELS 6 Xposition Yposition Zposition Zrotation Xrotation Yrotation
                    JOINT LeftFinger02
                    {
                      OFFSET -0.823 -2.3 1.6571
                      CHANNELS 6 Xposition Yposition Zposition Zrotation Xrotation Yrotation
                      End Site
                      {
                        OFFSET -0.5822 -1.6914 1.1582
                      }
                    }
                  }
                }
              }
            }
          }
        }
        JOINT RightCollar
        {
          OFFSET -2.2603 21.606 7.4023
          CHANNELS 6 Xposition Yposition Zposition Zrotation Xrotation Yrotation
          JOINT RightShoulder
          {
            OFFSET -13.5187 -1.1334 -5.0155
            CHANNELS 6 Xposition Yposition Zposition Zrotation Xrotation Yrotation
            JOINT RightElbow
            {
              OFFSET 0.0994 -28.0499 -0.2431
              CHANNELS 6 Xposition Yposition Zposition Zrotation Xrotation Yrotation
              JOINT RightWrist
              {
                OFFSET -0.0679 -23.3996 -0.1402
                CHANNELS 6 Xposition Yposition Zposition Zrotation Xrotation Yrotation
                JOINT RightFinger1
                {
                  OFFSET -0.7932 -9.0691 2.5189
                  CHANNELS 6 Xposition Yposition Zposition Zrotation Xrotation Yrotation
                  JOINT RightFinger11
                  {
                    OFFSET 0.8272 -3.3923 0.5977
                    CHANNELS 6 Xposition Yposition Zposition Zrotation Xrotation Yrotation
                    JOINT RightFinger12
                    {
                      OFFSET 0.565 -2.3158 0.4082
                      CHANNELS 6 Xposition Yposition Zposition Zrotation Xrotation Yrotation
                      End Site
                      {
                        OFFSET 0.4919 -1.6479 0.2673
                      }
                    }
                  }
                }
                JOINT RightFinger2
                {
                  OFFSET -0.916 -9.2044 0.2193
                  CHANNELS 6 Xposition Yposition Zposition Zrotation Xrotation Yrotation
                  JOINT RightFinger21
                  {
                    OFFSET -0.0117 -4.1944 -0.0248
                    CHANNELS 6 Xposition Yposition Zposition Zrotation Xrotation Yrotation
                    JOINT RightFinger22
                    {
                      OFFSET -0.0071 -2.3249 -0.0142
                      CHANNELS 6 Xposition Yposition Zposition Zrotation Xrotation Yrotation
                      End Site
                      {
                        OFFSET 0.1475 -2.0882 0.0028
                      }
                    }
                  }
                }
                JOINT RightFinger3
                {
                  OFFSET -0.6113 -8.7231 -2.0637
                  CHANNELS 6 Xposition Yposition Zposition Zrotation Xrotation Yrotation
                  JOINT RightFinger31
                  {
                    OFFSET 0.1927 -3.8059 -0.2383
                    CHANNELS 6 Xposition Yposition Zposition Zrotation Xrotation Yrotation
                    JOINT RightFinger32
                    {
                      OFFSET 0.1091 -2.1688 -0.1362
                      CHANNELS 6 Xposition Yposition Zposition Zrotation Xrotation Yrotation
                      End Site
                      {
                        OFFSET 0.2358 -1.9176 -0.0906
                      }
                    }
                  }
                }
                JOINT RightFinger4
                {
                  OFFSET 0.6151 -8.0947 -3.564
                  CHANNELS 6 Xposition Yposition Zposition Zrotation Xrotation Yrotation
                  JOINT RightFinger41
                  {
                    OFFSET 0.4882 -2.341 -0.6462
                    CHANNELS 6 Xposition Yposition Zposition Zrotation Xrotation Yrotation
                    JOINT RightFinger42
                    {
                      OFFSET 0.3574 -1.7166 -0.4742
                      CHANNELS 6 Xposition Yposition Zposition Zrotation Xrotation Yrotation
                      End Site
                      {
                        OFFSET 0.4187 -1.5237 -0.3496
                      }
                    }
                  }
                }
                JOINT RightFinger0
                {
                  OFFSET 1.4199 -1.8761 1.4221
                  CHANNELS 6 Xposition Yposition Zposition Zrotation Xrotation Yrotation
                  JOINT RightFinger01
                  {
                    OFFSET 1.1472 -3.4929 2.6336
                    CHANNELS 6 Xposition Yposition Zposition Zrotation Xrotation Yrotation
                    JOINT RightFinger02
                    {
                      OFFSET 0.8229 -2.3 1.6571
                      CHANNELS 6 Xposition Yposition Zposition Zrotation Xrotation Yrotation
                      End Site
                      {
                        OFFSET 0.5822 -1.6914 1.1582
                      }
                    }
                  }
                }
              }
            }
          }
        }
      }
    }
  }
  JOINT RightHip
  {
    OFFSET -9.412 3.9771 -0.7758
    CHANNELS 6 Xposition Yposition Zposition Zrotation Xrotation Yrotation
    JOINT RightKnee
    {
      OFFSET -0.7531 -40.938 0
      CHANNELS 6 Xposition Yposition Zposition Zrotation Xrotation Yrotation
      JOINT RightAnkle
      {
        OFFSET 0 -40.1986 0
        CHANNELS 6 Xposition Yposition Zposition Zrotation Xrotation Yrotation
        JOINT RightToe
        {
          OFFSET 0 -4.4182 9.239
          CHANNELS 6 Xposition Yposition Zposition Zrotation Xrotation Yrotation
          End Site
          {
            OFFSET 0 0 6.1981
          }
        }
      }
    }
  }
  JOINT LeftHip
  {
    OFFSET 9.4119 3.9773 -0.7758
    CHANNELS 6 Xposition Yposition Zposition Zrotation Xrotation Yrotation
    JOINT LeftKnee
    {
      OFFSET 0.7532 -40.9383 0
      CHANNELS 6 Xposition Yposition Zposition Zrotation Xrotation Yrotation
      JOINT LeftAnkle
      {
        OFFSET 0 -40.1986 0
        CHANNELS 6 Xposition Yposition Zposition Zrotation Xrotation Yrotation
        JOINT LeftToe
        {
          OFFSET 0 -4.4182 9.239
          CHANNELS 6 Xposition Yposition Zposition Zrotation Xrotation Yrotation
          End Site
          {
            OFFSET 0 0 6.1981
          }
        }
      }
    }
  }
}
MOTION
Frames:	4
Frame Time:	0.0333333
5.80788e-005 67.184 3.4734 0 0 -0 0 8.7983 -4.7612 0 0 -0 0 8.0291 0.4195 0 0 -0 0 9.9351 -2.2114 0 0 -0 0 22.3885 -0.4656 0 0 -0 -0.0001 12.643 3.4389 0 0 -0 2.2603 21.606 7.4023 0 0 -12.5014 13.5163 -1.1332 -5.0146 88.1196 14.2451 10.6914 -0.0995 -28.05 -0.2431 -0.00160068 -0.00239207 0.000740045 0.0679 -23.3996 -0.1402 -8.4365e-005 7.00714e-005 -9.52055e-007 0.7932 -9.069 2.5189 9.93923e-017 -1.98785e-016 -1.59028e-015 -0.8272 -3.3923 0.5977 9.93923e-017 -5.96354e-016 -1.59028e-015 -0.5649 -2.3158 0.4082 -9.93923e-017 -5.96354e-016 -1.59028e-015 0.9159 -9.2044 0.2193 9.93923e-017 -1.98785e-016 -1.59028e-015 0.0117 -4.1944 -0.0248 -0.0128176 0.00232552 8.52707e-005 0.0071 -2.3249 -0.0142 9.93923e-017 5.96354e-016 -0 0.6113 -8.7231 -2.0637 9.93923e-017 -1.98785e-016 -1.59028e-015 -0.1927 -3.8059 -0.2383 -0.0160551 0.00299681 0.000857156 -0.1091 -2.1688 -0.1362 -2.48481e-016 0 3.18055e-015 -0.6151 -8.0947 -3.5641 9.93923e-017 -1.98785e-016 -1.59028e-015 -0.4882 -2.341 -0.6462 -0.0125865 0.0031206 0.00282719 -0.3575 -1.7167 -0.4742 0 1.98785e-016 -0 -1.42 -1.8761 1.4223 9.93923e-017 -1.98785e-016 -1.59028e-015 -1.1471 -3.4929 2.6334 9.93923e-017 -5.96354e-016 -1.59028e-015 -0.823 -2.3 1.6571 -9.93923e-017 -5.96354e-016 -1.59028e-015 -2.2603 21.606 7.4023 -0.865644 0.16582 7.03859 -13.5187 -1.1334 -5.0155 -88.0329 10.2057 -10.5567 0.0994 -28.0499 -0.2431 0.0015593 -0.00248883 -0.000788628 -0.0679 -23.3996 -0.1402 7.87605e-005 4.10553e-005 1.24965e-005 -0.7932 -9.0691 2.5189 -3.97569e-016 -7.95139e-016 3.18055e-015 0.8272 -3.3923 0.5977 -1.98785e-016 -3.97569e-016 3.18055e-015 0.565 -2.3158 0.4082 -1.98785e-016 0 3.18055e-015 -0.916 -9.2044 0.2193 -3.97569e-016 -7.95139e-016 3.18055e-015 -0.0117 -4.1944 -0.0248 0.0129473 0.00231697 -8.70038e-005 -0.0071 -2.3249 -0.0142 9.93923e-017 -7.95139e-016 1.59028e-015 -0.6113 -8.7231 -2.0637 -3.97569e-016 -7.95139e-016 3.18055e-015 0.1927 -3.8059 -0.2383 0.0163314 0.00303369 -0.000872333 0.1091 -2.1688 -0.1362 3.97569e-016 7.95139e-016 -3.18055e-015 0.6151 -8.0947 -3.564 -3.97569e-016 -7.95139e-016 3.18055e-015 0.4882 -2.341 -0.6462 0.0145763 0.00367772 -0.00326275 0.3574 -1.7166 -0.4742 9.93923e-017 -3.97569e-016 -0 1.4199 -1.8761 1.4221 -3.97569e-016 -7.95139e-016 3.18055e-015 1.1472 -3.4929 2.6336 -1.98785e-016 -3.97569e-016 3.18055e-015 0.8229 -2.3 1.6571 -1.98785e-016 0 3.18055e-015 -9.412 3.9771 -0.7758 3.42485 1.36937 -0.0640303 -0.7531 -40.938 0 0.000136572 0.69354 0.00145564 1.77636e-015 -40.1986 -1.11022e-016 -3.42573 -2.06297 -0.0607933 8.88178e-016 -4.4182 9.239 -3.19502e-024 0 -1.48106e-024 9.4119 3.9773 -0.7758 -3.42498 1.36123 0.0639712 0.7532 -40.9383 2.22045e-016 -6.769e-005 0.712612 -0.0012277 8.88179e-016 -40.1986 0 3.42582 -2.07388 0.0612819 -8.88178e-016 -4.4182 9.239 2.55305e-023 0 -2.31416e-026 
1.63312 30.1617 -3.49538 -3.99022e-008 28.997 -7.85352e-008 0 8.7983 -4.7612 -0.0519539 1.50947 -0.448954 -2.22045e-016 8.0291 0.4195 -0.092117 3.01927 -0.897001 2.22045e-016 9.9351 -2.2114 -0.0921172 3.01929 -0.897002 1.66533e-016 22.3885 -0.4656 -6.2763e-006 -19.0046 -1.46698e-005 -0.0001 12.643 3.4389 4.39666e-008 0.361953 -9.84133e-007 2.2603 21.606 7.4023 -20.2176 -19.349 -43.4853 13.5163 -1.1332 -5.0146 44.6434 0.267337 20.8021 -0.0995 -28.05 -0.2431 -58.2827 -19.7596 -26.205 0.0679 -23.3996 -0.1402 61.3536 17.1025 -13.0404 0.7932 -9.069 2.5189 5.43686e-006 4.45621e-006 3.4966e-007 -0.8272 -3.3923 0.5977 -5.43686e-006 -4.45621e-006 -3.4966e-007 -0.5649 -2.3158 0.4082 1.06044e-006 3.01269e-006 -1.62996e-006 0.9159 -9.2044 0.2193 5.43686e-006 4.45621e-006 3.4966e-007 0.0117 -4.1944 -0.0248 -0.0128513 0.00231992 8.5974e-005 0.0071 -2.3249 -0.0142 7.4719e-007 5.06353e-006 1.43346e-006 0.6113 -8.7231 -2.0637 5.43686e-006 4.45621e-006 3.4966e-007 -0.1927 -3.8059 -0.2383 -0.016052 0.00298896 0.000856018 -0.1091 -2.1688 -0.1362 5.31982e-008 3.80534e-007 3.31051e-006 -0.6151 -8.0947 -3.5641 5.43686e-006 4.45621e-006 3.4966e-007 -0.4882 -2.341 -0.6462 -0.012555 0.00309872 0.00281279 -0.3575 -1.7167 -0.4742 7.47173e-007 1.80902e-006 1.4335e-006 -1.42 -1.8761 1.4223 5.43686e-006 4.45621e-006 3.4966e-007 -1.1471 -3.4929 2.6334 -5.43686e-006 -4.45621e-006 -3.4966e-007 -0.823 -2.3 1.6571 1.06044e-006 3.01269e-006 -1.62996e-006 -2.2603 21.606 7.4023 18.072 -20.4438 36.8022 -13.5187 -1.1334 -5.0155 -43.4133 -3.2695 -16.9058 0.0994 -28.0499 -0.2431 54.5061 -19.1783 25.4183 -0.0679 -23.3996 -0.1402 -53.7357 15.1416 11.196 -0.7932 -9.0691 2.5189 -6.47056e-006 -9.38303e-008 1.9448e-007 0.8272 -3.3923 0.5977 6.02346e-006 5.37856e-006 -3.54601e-006 0.565 -2.3158 0.4082 -5.31224e-006 -3.8331e-006 1.68669e-006 -0.916 -9.2044 0.2193 -6.47056e-006 -9.38303e-008 1.9448e-007 -0.0117 -4.1944 -0.0248 0.0129775 0.00232548 -8.9756e-005 -0.0071 -2.3249 -0.0142 -2.43611e-006 -7.03529e-006 8.65045e-007 -0.6113 -8.7231 -2.0637 -6.47056e-006 -9.38303e-008 1.9448e-007 0.1927 -3.8059 -0.2383 0.0163425 0.0030419 -0.000881316 0.1091 -2.1688 -0.1362 4.30984e-006 1.58606e-006 -1.23209e-006 0.6151 -8.0947 -3.564 -6.47056e-006 -9.38303e-008 1.9448e-007 0.4882 -2.341 -0.6462 0.0145964 0.00367592 -0.0032639 0.3574 -1.7166 -0.4742 -2.8864e-006 3.30401e-006 -2.48657e-006 1.4199 -1.8761 1.4221 -6.47056e-006 -9.38303e-008 1.9448e-007 1.1472 -3.4929 2.6336 6.02346e-006 5.37856e-006 -3.54601e-006 0.8229 -2.3 1.6571 -5.31224e-006 -3.8331e-006 1.68669e-006 -9.412 3.9771 -0.7758 -9.86255 -34.9202 -20.4566 -0.7531 -40.938 0 -172.344 76.2067 169.737 -1.77636e-015 -40.1986 0 20.5932 46.4705 -28.6418 0 -4.4182 9.239 3.97569e-015 -8.57178e-007 3.18055e-015 9.4119 3.9773 -0.7758 9.7081 -34.8342 20.2819 0.7532 -40.9383 1.77636e-015 172.738 76.3421 -170.08 1.77636e-015 -40.1986 0 -20.0196 45.5974 28.1356 0 -4.4182 9.239 -7.34219e-006 1.57097e-006 1.01344e-006 
1.63312 30.1549 -2.93577 -9.70765e-008 27.3464 -6.88276e-010 -2.22045e-016 8.7983 -4.7612 -0.0603154 2.10352 -0.445365 0 8.0291 0.4195 -0.10436 4.20742 -0.88941 0 9.9351 -2.2114 -0.10436 4.20743 -0.889413 0 22.3885 -0.4656 0.0705523 -18.8983 0.0117429 -0.0001 12.643 3.4389 -2.99473e-007 0.489039 1.8109e-008 2.2603 21.606 7.4023 -19.9334 -19.9837 -43.3954 13.5163 -1.1332 -5.0146 44.6434 0.267203 20.8021 -0.0995 -28.05 -0.2431 -59.5432 -19.9437 -26.7048 0.0679 -23.3996 -0.1402 62.3519 16.6806 -13.3183 0.7932 -9.069 2.5189 -5.68174e-006 2.81767e-006 6.97303e-006 -0.8272 -3.3923 0.5977 1.44014e-006 2.86946e-007 -4.44345e-007 -0.5649 -2.3158 0.4082 -1.44014e-006 7.78695e-008 4.44345e-007 0.9159 -9.2044 0.2193 -5.68174e-006 2.81767e-006 6.97303e-006 0.0117 -4.1944 -0.0248 -0.0127892 0.00231917 8.20793e-005 0.0071 -2.3249 -0.0142 -1.49709e-006 2.58306e-006 -2.86522e-006 0.6113 -8.7231 -2.0637 -5.68174e-006 2.81767e-006 6.97303e-006 -0.1927 -3.8059 -0.2383 -0.0160271 0.00298764 0.00084913 -0.1091 -2.1688 -0.1362 0 0 -0 -0.6151 -8.0947 -3.5641 -5.68174e-006 2.81767e-006 6.97303e-006 -0.4882 -2.341 -0.6462 -0.0125998 0.00312062 0.00282824 -0.3575 -1.7167 -0.4742 -4.77083e-015 0 -0 -1.42 -1.8761 1.4223 -5.68174e-006 2.81767e-006 6.97303e-006 -1.1471 -3.4929 2.6334 1.44014e-006 2.86946e-007 -4.44345e-007 -0.823 -2.3 1.6571 -1.44014e-006 7.78695e-008 4.44345e-007 -2.2603 21.606 7.4023 17.7842 -21.065 36.7078 -13.5187 -1.1334 -5.0155 -43.4133 -3.26949 -16.9058 0.0994 -28.0499 -0.2431 55.824 -19.4031 25.9414 -0.0679 -23.3996 -0.1402 -54.7209 14.7893 11.3515 -0.7932 -9.0691 2.5189 -3.18055e-015 3.18055e-015 -6.36111e-015 0.8272 -3.3923 0.5977 1.45505e-006 1.48228e-006 2.89415e-006 0.565 -2.3158 0.4082 3.18055e-015 6.36111e-015 -0 -0.916 -9.2044 0.2193 -3.18055e-015 3.18055e-015 -6.36111e-015 -0.0117 -4.1944 -0.0248 0.0129549 0.00231347 -8.49248e-005 -0.0071 -2.3249 -0.0142 7.27344e-007 1.80619e-006 1.4471e-006 -0.6113 -8.7231 -2.0637 -3.18055e-015 3.18055e-015 -6.36111e-015 0.1927 -3.8059 -0.2383 0.0163267 0.00303148 -0.000872607 0.1091 -2.1688 -0.1362 -3.18055e-015 -3.18055e-015 -0 0.6151 -8.0947 -3.564 -3.18055e-015 3.18055e-015 -6.36111e-015 0.4882 -2.341 -0.6462 0.0145929 0.00368781 -0.00326753 0.3574 -1.7166 -0.4742 6.36111e-015 0 -0 1.4199 -1.8761 1.4221 -3.18055e-015 3.18055e-015 -6.36111e-015 1.1472 -3.4929 2.6336 1.45505e-006 1.48228e-006 2.89415e-006 0.8229 -2.3 1.6571 3.18055e-015 6.36111e-015 -0 -9.412 3.9771 -0.7758 -9.47505 -32.7231 -19.8758 -0.7531 -40.938 0 -172.132 76.9018 169.564 0 -40.1986 -8.88179e-016 20.5635 46.4821 -28.6049 -1.77636e-015 -4.4182 9.239 1.2328e-005 -2.90115e-006 -9.83369e-007 9.4119 3.9773 -0.7758 9.32255 -32.6367 19.7041 0.7532 -40.9383 -8.88179e-016 172.55 77.0381 -169.931 0 -40.1986 1.77636e-015 -19.9908 45.6096 28.0994 0 -4.4182 9.239 1.59028e-015 -6.36111e-015 -1.59028e-015 
1.63311 30.1548 -2.37528 -1.22498e-007 25.6901 -6.6377e-008 -2.22045e-016 8.7983 -4.7612 -0.0686774 2.69962 -0.441514 2.22045e-016 8.0291 0.4195 -0.116694 5.39966 -0.881254 1.11022e-016 9.9351 -2.2114 -0.116694 5.39967 -0.881255 -5.55112e-017 22.3885 -0.4656 0.14105 -18.7919 0.0233371 -0.0001 12.643 3.4389 -1.60948e-007 0.61612 -1.74267e-007 2.2603 21.606 7.4023 -19.6467 -20.6182 -43.3017 13.5163 -1.1332 -5.0146 44.6434 0.267257 20.8021 -0.0995 -28.05 -0.2431 -60.8092 -20.1178 -27.2105 0.0679 -23.3996 -0.1402 63.3471 16.2537 -13.5883 0.7932 -9.069 2.5189 -1.0439e-005 5.57514e-006 3.81866e-006 -0.8272 -3.3923 0.5977 5.75805e-006 2.79239e-006 -1.78016e-006 -0.5649 -2.3158 0.4082 4.3956e-007 -3.23421e-006 4.4977e-006 0.9159 -9.2044 0.2193 -1.0439e-005 5.57514e-006 3.81866e-006 0.0117 -4.1944 -0.0248 -0.012782 0.00230997 8.46391e-005 0.0071 -2.3249 -0.0142 7.49777e-007 -1.80861e-006 1.43186e-006 0.6113 -8.7231 -2.0637 -1.0439e-005 5.57514e-006 3.81866e-006 -0.1927 -3.8059 -0.2383 -0.0160552 0.00298714 0.000854951 -0.1091 -2.1688 -0.1362 5.29669e-031 -9.54166e-015 3.18055e-015 -0.6151 -8.0947 -3.5641 -1.0439e-005 5.57514e-006 3.81866e-006 -0.4882 -2.341 -0.6462 -0.0125374 0.00310101 0.00281136 -0.3575 -1.7167 -0.4742 -8.61825e-006 3.03207e-006 4.56165e-006 -1.42 -1.8761 1.4223 -1.0439e-005 5.57514e-006 3.81866e-006 -1.1471 -3.4929 2.6334 5.75805e-006 2.79239e-006 -1.78016e-006 -0.823 -2.3 1.6571 4.3956e-007 -3.23421e-006 4.4977e-006 -2.2603 21.606 7.4023 17.4938 -21.6861 36.6095 -13.5187 -1.1334 -5.0155 -43.4132 -3.2695 -16.9058 0.0994 -28.0499 -0.2431 57.1483 -19.6168 26.4716 -0.0679 -23.3996 -0.1402 -55.7049 14.434 11.5007 -0.7932 -9.0691 2.5189 -7.95139e-015 3.18055e-015 6.36111e-015 0.8272 -3.3923 0.5977 -7.95139e-015 9.54166e-015 -0 0.565 -2.3158 0.4082 -1.59028e-015 3.18055e-015 -3.18055e-015 -0.916 -9.2044 0.2193 -7.95139e-015 3.18055e-015 6.36111e-015 -0.0117 -4.1944 -0.0248 0.0129682 0.00233009 -9.55072e-005 -0.0071 -2.3249 -0.0142 -9.54166e-015 -3.18055e-015 -3.18055e-015 -0.6113 -8.7231 -2.0637 -7.95139e-015 3.18055e-015 6.36111e-015 0.1927 -3.8059 -0.2383 0.0163152 0.00303057 -0.000876512 0.1091 -2.1688 -0.1362 1.59028e-015 6.36111e-015 -6.36111e-015 0.6151 -8.0947 -3.564 -7.95139e-015 3.18055e-015 6.36111e-015 0.4882 -2.341 -0.6462 0.0146225 0.00369371 -0.00328143 0.3574 -1.7166 -0.4742 3.66135e-006 -6.82222e-007 3.72067e-006 1.4199 -1.8761 1.4221 -7.95139e-015 3.18055e-015 6.36111e-015 1.1472 -3.4929 2.6336 -7.95139e-015 9.54166e-015 -0 0.8229 -2.3 1.6571 -1.59028e-015 3.18055e-015 -3.18055e-015 -9.412 3.9771 -0.7758 -9.11748 -30.5089 -19.322 -0.7531 -40.938 8.88179e-016 -171.898 77.5971 169.368 -3.55271e-015 -40.1986 8.88179e-016 20.534 46.4936 -28.5683 0 -4.4182 9.239 4.13628e-006 -3.92381e-006 1.29301e-006 9.4119 3.9773 -0.7758 8.96668 -30.4222 19.153 0.7532 -40.9383 -8.88178e-016 172.343 77.7345 -169.761 1.77636e-015 -40.1986 0 -19.9622 45.6216 28.0635 0 -4.4182 9.239 8.06632e-007 -4.36765e-006 -1.84381e-006 
